<svg xmlns="http://www.w3.org/2000/svg" xmlns:xlink="http://www.w3.org/1999/xlink" width="500" zoomAndPan="magnify" viewBox="0 0 375 374.999991" height="500" preserveAspectRatio="xMidYMid meet" version="1.0"><defs><g/><clipPath id="3240ff0777"><path d="M 0 26.367188 L 375 26.367188 L 375 348.632812 L 0 348.632812 Z M 0 26.367188 " clip-rule="nonzero"/></clipPath><clipPath id="9eb2844fbc"><path d="M 375 187.5 L 281.25 348.632812 L 93.75 348.632812 L 0 187.5 L 93.75 26.367188 L 281.25 26.367188 L 375 187.5 " clip-rule="nonzero"/></clipPath></defs><g clip-path="url(#3240ff0777)"><g clip-path="url(#9eb2844fbc)"><path fill="#228b22" d="M 0 26.367188 L 375 26.367188 L 375 348.632812 L 0 348.632812 Z M 0 26.367188 " fill-opacity="1" fill-rule="nonzero"/></g></g><g fill="#ffffff" fill-opacity="1"><g transform="translate(107.273436, 277.398359)"><g><path d="M 74.421875 3.765625 C 62.898438 3.765625 52.328125 1.78125 42.703125 -2.1875 C 33.078125 -6.164062 24.96875 -11.816406 18.375 -19.140625 C 11.78125 -26.472656 7.222656 -34.953125 4.703125 -44.578125 L 32.65625 -55.890625 C 36.207031 -46.265625 41.800781 -38.726562 49.4375 -33.28125 C 57.082031 -27.84375 66.035156 -25.125 76.296875 -25.125 C 85.503906 -25.125 92.773438 -27.265625 98.109375 -31.546875 C 103.453125 -35.835938 106.125 -41.226562 106.125 -47.71875 C 106.125 -52.75 104.289062 -56.726562 100.625 -59.65625 C 96.96875 -62.582031 92.207031 -64.882812 86.34375 -66.5625 L 60.28125 -73.78125 C 47.507812 -77.34375 37.773438 -83.046875 31.078125 -90.890625 C 24.378906 -98.742188 21.03125 -108.113281 21.03125 -119 C 21.03125 -129.46875 23.851562 -138.78125 29.5 -146.9375 C 35.15625 -155.101562 42.898438 -161.59375 52.734375 -166.40625 C 62.578125 -171.226562 73.570312 -173.640625 85.71875 -173.640625 C 101.832031 -173.640625 115.59375 -169.660156 127 -161.703125 C 138.414062 -153.742188 146.003906 -142.960938 149.765625 -129.359375 L 121.203125 -118.0625 C 118.898438 -126.4375 114.398438 -132.875 107.703125 -137.375 C 101.003906 -141.875 93.257812 -144.125 84.46875 -144.125 C 76.09375 -144.125 69.234375 -142.1875 63.890625 -138.3125 C 58.554688 -134.4375 55.890625 -129.253906 55.890625 -122.765625 C 55.890625 -117.742188 57.664062 -113.765625 61.21875 -110.828125 C 64.78125 -107.898438 69.390625 -105.597656 75.046875 -103.921875 L 101.734375 -95.765625 C 114.503906 -91.785156 124.289062 -85.921875 131.09375 -78.171875 C 137.894531 -70.429688 141.296875 -61.222656 141.296875 -50.546875 C 141.296875 -40.296875 138.414062 -31.085938 132.65625 -22.921875 C 126.90625 -14.753906 119.003906 -8.265625 108.953125 -3.453125 C 98.898438 1.359375 87.390625 3.765625 74.421875 3.765625 Z M 74.421875 3.765625 "/></g></g></g></svg>