<svg xmlns="http://www.w3.org/2000/svg" xmlns:xlink="http://www.w3.org/1999/xlink" width="180" zoomAndPan="magnify" viewBox="0 0 135 44.999999" height="60" preserveAspectRatio="xMidYMid meet" version="1.0"><defs><g/></defs><g fill="#228b22" fill-opacity="1"><g transform="translate(3.890626, 35.555967)"><g><path d="M 10.09375 0.515625 C 8.53125 0.515625 7.09375 0.242188 5.78125 -0.296875 C 4.476562 -0.835938 3.378906 -1.601562 2.484375 -2.59375 C 1.597656 -3.59375 0.984375 -4.742188 0.640625 -6.046875 L 4.421875 -7.578125 C 4.910156 -6.273438 5.671875 -5.253906 6.703125 -4.515625 C 7.734375 -3.773438 8.945312 -3.40625 10.34375 -3.40625 C 11.59375 -3.40625 12.578125 -3.695312 13.296875 -4.28125 C 14.023438 -4.863281 14.390625 -5.59375 14.390625 -6.46875 C 14.390625 -7.144531 14.140625 -7.679688 13.640625 -8.078125 C 13.140625 -8.484375 12.492188 -8.796875 11.703125 -9.015625 L 8.171875 -10 C 6.441406 -10.476562 5.125 -11.25 4.21875 -12.3125 C 3.3125 -13.382812 2.859375 -14.65625 2.859375 -16.125 C 2.859375 -17.550781 3.238281 -18.816406 4 -19.921875 C 4.769531 -21.023438 5.820312 -21.898438 7.15625 -22.546875 C 8.488281 -23.203125 9.976562 -23.53125 11.625 -23.53125 C 13.800781 -23.53125 15.660156 -22.988281 17.203125 -21.90625 C 18.753906 -20.832031 19.785156 -19.375 20.296875 -17.53125 L 16.421875 -16 C 16.109375 -17.132812 15.5 -18.003906 14.59375 -18.609375 C 13.6875 -19.222656 12.640625 -19.53125 11.453125 -19.53125 C 10.316406 -19.53125 9.382812 -19.269531 8.65625 -18.75 C 7.9375 -18.226562 7.578125 -17.523438 7.578125 -16.640625 C 7.578125 -15.960938 7.816406 -15.421875 8.296875 -15.015625 C 8.773438 -14.617188 9.398438 -14.3125 10.171875 -14.09375 L 13.796875 -12.984375 C 15.523438 -12.441406 16.847656 -11.644531 17.765625 -10.59375 C 18.691406 -9.539062 19.15625 -8.296875 19.15625 -6.859375 C 19.15625 -5.460938 18.765625 -4.210938 17.984375 -3.109375 C 17.203125 -2.003906 16.128906 -1.125 14.765625 -0.46875 C 13.398438 0.1875 11.84375 0.515625 10.09375 0.515625 Z M 10.09375 0.515625 "/></g></g></g><g fill="#228b22" fill-opacity="1"><g transform="translate(25.634056, 35.555967)"><g><path d="M 0.046875 8.515625 L 4.421875 -23.03125 L 9.0625 -23.03125 L 8.421875 -18.265625 L 7.28125 -19.40625 C 8.1875 -20.707031 9.367188 -21.71875 10.828125 -22.4375 C 12.296875 -23.164062 13.921875 -23.53125 15.703125 -23.53125 C 17.859375 -23.53125 19.75 -23.035156 21.375 -22.046875 C 23.007812 -21.054688 24.285156 -19.71875 25.203125 -18.03125 C 26.128906 -16.34375 26.59375 -14.445312 26.59375 -12.34375 C 26.59375 -10.582031 26.28125 -8.925781 25.65625 -7.375 C 25.039062 -5.832031 24.171875 -4.460938 23.046875 -3.265625 C 21.921875 -2.078125 20.613281 -1.148438 19.125 -0.484375 C 17.632812 0.179688 16.015625 0.515625 14.265625 0.515625 C 12.410156 0.515625 10.722656 0.132812 9.203125 -0.625 C 7.691406 -1.394531 6.550781 -2.476562 5.78125 -3.875 L 6.8125 -4.6875 L 4.984375 8.515625 Z M 13.875 -3.953125 C 15.375 -3.953125 16.695312 -4.328125 17.84375 -5.078125 C 19 -5.835938 19.910156 -6.847656 20.578125 -8.109375 C 21.242188 -9.367188 21.578125 -10.765625 21.578125 -12.296875 C 21.578125 -13.609375 21.300781 -14.773438 20.75 -15.796875 C 20.195312 -16.816406 19.4375 -17.613281 18.46875 -18.1875 C 17.507812 -18.769531 16.375 -19.0625 15.0625 -19.0625 C 13.59375 -19.0625 12.28125 -18.6875 11.125 -17.9375 C 9.976562 -17.1875 9.082031 -16.1875 8.4375 -14.9375 C 7.800781 -13.6875 7.484375 -12.3125 7.484375 -10.8125 C 7.484375 -9.476562 7.757812 -8.289062 8.3125 -7.25 C 8.875 -6.21875 9.628906 -5.410156 10.578125 -4.828125 C 11.523438 -4.242188 12.625 -3.953125 13.875 -3.953125 Z M 13.875 -3.953125 "/></g></g></g><g fill="#228b22" fill-opacity="1"><g transform="translate(54.1005, 35.555967)"><g><path d="M 1.234375 0 L 5.75 -32.21875 L 10.5625 -32.21875 L 6.046875 0 Z M 1.234375 0 "/></g></g></g><g fill="#228b22" fill-opacity="1"><g transform="translate(64.567986, 35.555967)"><g><path d="M 12.984375 0.515625 C 10.765625 0.515625 8.828125 0.0234375 7.171875 -0.953125 C 5.515625 -1.929688 4.222656 -3.269531 3.296875 -4.96875 C 2.378906 -6.675781 1.921875 -8.59375 1.921875 -10.71875 C 1.921875 -12.476562 2.222656 -14.128906 2.828125 -15.671875 C 3.441406 -17.222656 4.289062 -18.585938 5.375 -19.765625 C 6.46875 -20.941406 7.742188 -21.863281 9.203125 -22.53125 C 10.671875 -23.195312 12.269531 -23.53125 14 -23.53125 C 16.238281 -23.53125 18.128906 -23.0625 19.671875 -22.125 C 21.222656 -21.195312 22.394531 -19.941406 23.1875 -18.359375 C 23.988281 -16.785156 24.390625 -15.0625 24.390625 -13.1875 C 24.390625 -12.707031 24.347656 -12.195312 24.265625 -11.65625 C 24.179688 -11.125 24.09375 -10.613281 24 -10.125 L 5.625 -10.125 L 5.921875 -13.953125 L 21.53125 -13.953125 L 19.109375 -12.296875 C 19.503906 -13.628906 19.515625 -14.84375 19.140625 -15.9375 C 18.773438 -17.03125 18.140625 -17.894531 17.234375 -18.53125 C 16.328125 -19.175781 15.234375 -19.5 13.953125 -19.5 C 12.335938 -19.5 11.003906 -19.09375 9.953125 -18.28125 C 8.910156 -17.46875 8.132812 -16.363281 7.625 -14.96875 C 7.113281 -13.582031 6.859375 -12 6.859375 -10.21875 C 6.859375 -8.882812 7.125 -7.726562 7.65625 -6.75 C 8.195312 -5.769531 8.9375 -5.023438 9.875 -4.515625 C 10.8125 -4.003906 11.875 -3.75 13.0625 -3.75 C 14.476562 -3.75 15.703125 -4.070312 16.734375 -4.71875 C 17.773438 -5.375 18.625 -6.195312 19.28125 -7.1875 L 23.109375 -5.109375 C 22.566406 -4.023438 21.789062 -3.054688 20.78125 -2.203125 C 19.78125 -1.359375 18.613281 -0.691406 17.28125 -0.203125 C 15.945312 0.273438 14.515625 0.515625 12.984375 0.515625 Z M 12.984375 0.515625 "/></g></g></g><g fill="#228b22" fill-opacity="1"><g transform="translate(90.736686, 35.555967)"><g><path d="M 1.234375 0 L 4.421875 -23.03125 L 9.015625 -23.03125 L 8.421875 -18.515625 L 7.921875 -19.234375 C 8.648438 -20.679688 9.675781 -21.757812 11 -22.46875 C 12.320312 -23.175781 13.789062 -23.53125 15.40625 -23.53125 C 17.113281 -23.53125 18.582031 -23.132812 19.8125 -22.34375 C 21.050781 -21.550781 21.957031 -20.457031 22.53125 -19.0625 C 23.113281 -17.675781 23.28125 -16.101562 23.03125 -14.34375 L 21.03125 0 L 16.21875 0 L 18.125 -13.828125 C 18.351562 -15.421875 18.070312 -16.691406 17.28125 -17.640625 C 16.488281 -18.585938 15.351562 -19.0625 13.875 -19.0625 C 12.882812 -19.0625 11.960938 -18.832031 11.109375 -18.375 C 10.253906 -17.925781 9.539062 -17.289062 8.96875 -16.46875 C 8.40625 -15.644531 8.039062 -14.664062 7.875 -13.53125 L 6 0 Z M 1.234375 0 "/></g></g></g><g fill="#228b22" fill-opacity="1"><g transform="translate(115.713976, 35.555967)"><g><path d="M 1.234375 0 L 4.421875 -23.03125 L 9.0625 -23.03125 L 8.421875 -18.390625 L 8.046875 -19.0625 C 8.785156 -20.570312 9.765625 -21.660156 10.984375 -22.328125 C 12.203125 -22.992188 13.601562 -23.328125 15.1875 -23.328125 L 16.59375 -23.328125 L 16 -18.9375 L 14 -18.9375 C 12.382812 -18.9375 11.019531 -18.425781 9.90625 -17.40625 C 8.800781 -16.382812 8.109375 -14.867188 7.828125 -12.859375 L 6.046875 0 Z M 1.234375 0 "/></g></g></g></svg>