<svg xmlns="http://www.w3.org/2000/svg" xmlns:xlink="http://www.w3.org/1999/xlink" width="900" zoomAndPan="magnify" viewBox="0 0 675 225" height="300" preserveAspectRatio="xMidYMid meet" version="1.0"><defs><g/></defs><g fill="#228b22" fill-opacity="1"><g transform="translate(19.453124, 177.779849)"><g><path d="M 50.421875 2.546875 C 42.617188 2.546875 35.457031 1.203125 28.9375 -1.484375 C 22.414062 -4.179688 16.921875 -8.007812 12.453125 -12.96875 C 7.984375 -17.9375 4.894531 -23.6875 3.1875 -30.21875 L 22.125 -37.875 C 24.539062 -31.351562 28.335938 -26.242188 33.515625 -22.546875 C 38.691406 -18.859375 44.753906 -17.015625 51.703125 -17.015625 C 57.941406 -17.015625 62.867188 -18.46875 66.484375 -21.375 C 70.109375 -24.289062 71.921875 -27.945312 71.921875 -32.34375 C 71.921875 -35.75 70.675781 -38.441406 68.1875 -40.421875 C 65.707031 -42.410156 62.484375 -43.972656 58.515625 -45.109375 L 40.859375 -50 C 32.203125 -52.414062 25.601562 -56.28125 21.0625 -61.59375 C 16.519531 -66.914062 14.25 -73.265625 14.25 -80.640625 C 14.25 -87.734375 16.164062 -94.046875 20 -99.578125 C 23.832031 -105.109375 29.082031 -109.503906 35.75 -112.765625 C 42.414062 -116.035156 49.863281 -117.671875 58.09375 -117.671875 C 69.007812 -117.671875 78.332031 -114.972656 86.0625 -109.578125 C 93.800781 -104.191406 98.945312 -96.890625 101.5 -87.671875 L 82.140625 -80 C 80.578125 -85.675781 77.523438 -90.039062 72.984375 -93.09375 C 68.441406 -96.144531 63.191406 -97.671875 57.234375 -97.671875 C 51.566406 -97.671875 46.921875 -96.359375 43.296875 -93.734375 C 39.679688 -91.109375 37.875 -87.597656 37.875 -83.203125 C 37.875 -79.796875 39.078125 -77.097656 41.484375 -75.109375 C 43.898438 -73.128906 47.023438 -71.570312 50.859375 -70.4375 L 68.9375 -64.890625 C 77.59375 -62.203125 84.222656 -58.234375 88.828125 -52.984375 C 93.441406 -47.734375 95.75 -41.488281 95.75 -34.25 C 95.75 -27.300781 93.796875 -21.0625 89.890625 -15.53125 C 85.992188 -10 80.640625 -5.601562 73.828125 -2.34375 C 67.023438 0.914062 59.222656 2.546875 50.421875 2.546875 Z M 50.421875 2.546875 "/></g></g></g><g fill="#228b22" fill-opacity="1"><g transform="translate(128.170273, 177.779849)"><g><path d="M 0.21875 42.5625 L 22.125 -115.109375 L 45.328125 -115.109375 L 42.125 -91.28125 L 36.390625 -97.03125 C 40.921875 -103.550781 46.835938 -108.617188 54.140625 -112.234375 C 61.453125 -115.859375 69.578125 -117.671875 78.515625 -117.671875 C 89.296875 -117.671875 98.765625 -115.1875 106.921875 -110.21875 C 115.078125 -105.25 121.457031 -98.546875 126.0625 -90.109375 C 130.675781 -81.671875 132.984375 -72.203125 132.984375 -61.703125 C 132.984375 -52.910156 131.421875 -44.648438 128.296875 -36.921875 C 125.179688 -29.191406 120.820312 -22.347656 115.21875 -16.390625 C 109.613281 -10.429688 103.085938 -5.785156 95.640625 -2.453125 C 88.191406 0.878906 80.070312 2.546875 71.28125 2.546875 C 62.0625 2.546875 53.65625 0.632812 46.0625 -3.1875 C 38.476562 -7.019531 32.769531 -12.410156 28.9375 -19.359375 L 34.046875 -23.40625 L 24.890625 42.5625 Z M 69.359375 -19.78125 C 76.878906 -19.78125 83.507812 -21.660156 89.25 -25.421875 C 95 -29.179688 99.539062 -34.21875 102.875 -40.53125 C 106.207031 -46.84375 107.875 -53.832031 107.875 -61.5 C 107.875 -68.019531 106.488281 -73.832031 103.71875 -78.9375 C 100.957031 -84.050781 97.164062 -88.0625 92.34375 -90.96875 C 87.519531 -93.875 81.847656 -95.328125 75.328125 -95.328125 C 67.953125 -95.328125 61.390625 -93.445312 55.640625 -89.6875 C 49.898438 -85.925781 45.429688 -80.925781 42.234375 -74.6875 C 39.046875 -68.445312 37.453125 -61.566406 37.453125 -54.046875 C 37.453125 -47.378906 38.832031 -41.457031 41.59375 -36.28125 C 44.363281 -31.101562 48.125 -27.054688 52.875 -24.140625 C 57.625 -21.234375 63.117188 -19.78125 69.359375 -19.78125 Z M 69.359375 -19.78125 "/></g></g></g><g fill="#228b22" fill-opacity="1"><g transform="translate(270.502496, 177.779849)"><g><path d="M 6.171875 0 L 28.71875 -161.078125 L 52.765625 -161.078125 L 30.21875 0 Z M 6.171875 0 "/></g></g></g><g fill="#228b22" fill-opacity="1"><g transform="translate(322.839931, 177.779849)"><g><path d="M 64.890625 2.546875 C 53.828125 2.546875 44.144531 0.101562 35.84375 -4.78125 C 27.550781 -9.675781 21.097656 -16.378906 16.484375 -24.890625 C 11.878906 -33.398438 9.578125 -42.976562 9.578125 -53.625 C 9.578125 -62.414062 11.097656 -70.675781 14.140625 -78.40625 C 17.191406 -86.132812 21.445312 -92.941406 26.90625 -98.828125 C 32.375 -104.722656 38.757812 -109.335938 46.0625 -112.671875 C 53.375 -116.003906 61.351562 -117.671875 70 -117.671875 C 81.207031 -117.671875 90.675781 -115.328125 98.40625 -110.640625 C 106.144531 -105.960938 112 -99.6875 115.96875 -91.8125 C 119.9375 -83.9375 121.921875 -75.320312 121.921875 -65.96875 C 121.921875 -63.550781 121.707031 -60.992188 121.28125 -58.296875 C 120.851562 -55.609375 120.429688 -53.054688 120.015625 -50.640625 L 28.09375 -50.640625 L 29.578125 -69.796875 L 107.671875 -69.796875 L 95.53125 -61.5 C 97.519531 -68.164062 97.59375 -74.226562 95.75 -79.6875 C 93.90625 -85.144531 90.710938 -89.46875 86.171875 -92.65625 C 81.640625 -95.851562 76.179688 -97.453125 69.796875 -97.453125 C 61.703125 -97.453125 55.03125 -95.429688 49.78125 -91.390625 C 44.539062 -87.347656 40.640625 -81.847656 38.078125 -74.890625 C 35.523438 -67.941406 34.25 -60 34.25 -51.0625 C 34.25 -44.394531 35.597656 -38.613281 38.296875 -33.71875 C 40.992188 -28.832031 44.679688 -25.109375 49.359375 -22.546875 C 54.046875 -19.992188 59.367188 -18.71875 65.328125 -18.71875 C 72.421875 -18.71875 78.554688 -20.347656 83.734375 -23.609375 C 88.910156 -26.878906 93.128906 -30.992188 96.390625 -35.953125 L 115.546875 -25.53125 C 112.847656 -20.144531 108.976562 -15.320312 103.9375 -11.0625 C 98.90625 -6.8125 93.054688 -3.476562 86.390625 -1.0625 C 79.722656 1.34375 72.554688 2.546875 64.890625 2.546875 Z M 64.890625 2.546875 "/></g></g></g><g fill="#228b22" fill-opacity="1"><g transform="translate(453.683433, 177.779849)"><g><path d="M 6.171875 0 L 22.125 -115.109375 L 45.109375 -115.109375 L 42.125 -92.5625 L 39.578125 -96.171875 C 43.265625 -103.410156 48.40625 -108.800781 55 -112.34375 C 61.59375 -115.894531 68.9375 -117.671875 77.03125 -117.671875 C 85.539062 -117.671875 92.878906 -115.679688 99.046875 -111.703125 C 105.222656 -107.734375 109.765625 -102.273438 112.671875 -95.328125 C 115.578125 -88.378906 116.390625 -80.503906 115.109375 -71.703125 L 105.109375 0 L 81.0625 0 L 90.640625 -69.15625 C 91.773438 -77.09375 90.359375 -83.4375 86.390625 -88.1875 C 82.421875 -92.945312 76.742188 -95.328125 69.359375 -95.328125 C 64.398438 -95.328125 59.789062 -94.191406 55.53125 -91.921875 C 51.28125 -89.648438 47.734375 -86.457031 44.890625 -82.34375 C 42.054688 -78.226562 40.210938 -73.335938 39.359375 -67.671875 L 30 0 Z M 6.171875 0 "/></g></g></g><g fill="#228b22" fill-opacity="1"><g transform="translate(578.569884, 177.779849)"><g><path d="M 6.171875 0 L 22.125 -115.109375 L 45.328125 -115.109375 L 42.125 -91.921875 L 40.21875 -95.328125 C 43.90625 -102.847656 48.796875 -108.273438 54.890625 -111.609375 C 60.992188 -114.941406 68.019531 -116.609375 75.96875 -116.609375 L 82.984375 -116.609375 L 80 -94.6875 L 70 -94.6875 C 61.914062 -94.6875 55.109375 -92.132812 49.578125 -87.03125 C 44.046875 -81.925781 40.570312 -74.335938 39.15625 -64.265625 L 30.21875 0 Z M 6.171875 0 "/></g></g></g></svg>